<svg xmlns="http://www.w3.org/2000/svg" viewBox="10 5 110 120" class="banner-logo-foodpanda">
<g fill="none" fill-rule="evenodd">
<path fill="#D70F64" d="M0 0h128v128H0z"></path>
<path fill="#FFF" fill-rule="nonzero" d="M49.379 51.783c-1.137 0-2.084.938-2.084 2.064 0 1.127.947 2.065 2.084 2.065 1.136 0 2.083-.938 2.083-2.065a2.072 2.072 0 0 0-2.083-2.064zm0 0c-1.137 0-2.084.938-2.084 2.064 0 1.127.947 2.065 2.084 2.065 1.136 0 2.083-.938 2.083-2.065a2.072 2.072 0 0 0-2.083-2.064zm0 0c-1.137 0-2.084.938-2.084 2.064 0 1.127.947 2.065 2.084 2.065 1.136 0 2.083-.938 2.083-2.065a2.072 2.072 0 0 0-2.083-2.064zm29.892 0c-1.136 0-2.083.938-2.083 2.064 0 1.127.947 2.065 2.083 2.065 1.137 0 2.083-.938 2.083-2.065 0-1.126-.946-2.064-2.083-2.064zm0 0c-1.136 0-2.083.938-2.083 2.064 0 1.127.947 2.065 2.083 2.065 1.137 0 2.083-.938 2.083-2.065 0-1.126-.946-2.064-2.083-2.064zm-29.892 0c-1.137 0-2.084.938-2.084 2.064 0 1.127.947 2.065 2.084 2.065 1.136 0 2.083-.938 2.083-2.065a2.072 2.072 0 0 0-2.083-2.064zm54.576 10.387l-.094-1.596c-.032-.125-.032-.25-.032-.375a31.453 31.453 0 0 0-.252-1.815c-.127-.782-.285-1.564-.442-2.346-.095-.501-.253-1.002-.38-1.534-.157-.625-.346-1.251-.536-1.877v-.031c-.19-.626-.41-1.22-.631-1.815-.221-.594-.442-1.189-.726-1.783a44.06 44.06 0 0 0-1.673-3.473c-.6-1.126-1.294-2.221-1.989-3.254.063-.062.158-.125.19-.187.19-.157.315-.282.505-.47l.031-.03c.063-.063.158-.157.19-.22l.473-.563c.063-.063.126-.156.19-.25.189-.25.347-.47.505-.72a.432.432 0 0 1 .094-.125c.032-.031.032-.063.063-.094.032-.031.032-.063.032-.063.126-.25.284-.5.379-.75.158-.313.316-.657.41-1.033.063-.125.095-.281.126-.407a8.17 8.17 0 0 0 .095-.406c.032-.157.095-.313.095-.47.063-.25.095-.531.126-.782.032-.031.032-.094.032-.125a.956.956 0 0 0 .031-.313c.032-.281.032-.563.032-.845 0-5.756-4.703-10.418-10.543-10.418-.316 0-.663.031-.979.063-.126.03-.284.03-.41.062a5.94 5.94 0 0 0-.79.125c-.315.063-.63.157-.946.25-.063.032-.158.032-.19.063-.284.094-.504.188-.757.282-.032 0-.032.031-.063.031-.316.125-.6.282-.884.438a5.568 5.568 0 0 0-.726.438.66.66 0 0 0-.19.125 9.214 9.214 0 0 0-.662.5 1.034 1.034 0 0 0-.253.189c-.19.156-.379.312-.536.469a.846.846 0 0 0-.221.25l-.032.031c-.19.188-.347.376-.505.564-.22.25-.41.531-.6.782-.063.062-.094.094-.126.156-.6-.281-1.2-.563-1.8-.782-.599-.25-1.199-.5-1.83-.72-.379-.156-.79-.281-1.2-.406-.347-.157-.694-.25-1.041-.344-.347-.094-.695-.188-1.073-.282-.253-.063-.505-.157-.758-.188-.347-.094-.694-.156-1.042-.25a25.037 25.037 0 0 0-1.483-.313 18.156 18.156 0 0 0-.537-.094c-.442-.062-.947-.156-1.42-.188-.284-.062-.537-.062-.82-.093-.632-.063-1.232-.126-1.895-.157-.063-.031-.158-.031-.19-.031-.757-.063-1.514-.063-2.272-.063a55.1 55.1 0 0 0-2.273.063c-.063 0-.126 0-.19.031-.63.031-1.262.063-1.893.157-.284.03-.537.062-.82.093l-1.421.188c-.19.031-.379.063-.537.094-.505.094-1.01.188-1.483.313a10.76 10.76 0 0 0-1.074.25l-.757.188c-.379.094-.726.188-1.073.282-.348.093-.695.187-1.042.344-.41.094-.79.25-1.2.406-.63.22-1.23.438-1.83.72-.6.25-1.2.5-1.8.782a.55.55 0 0 0-.126-.156 7.353 7.353 0 0 0-.6-.782c-.157-.188-.315-.376-.505-.564l-.031-.03c-.063-.063-.126-.157-.221-.251-.158-.157-.347-.313-.537-.47a.49.49 0 0 0-.252-.187c-.19-.188-.442-.344-.663-.5a.403.403 0 0 0-.19-.126c-.252-.156-.473-.313-.726-.438a7.72 7.72 0 0 0-.883-.438c-.032 0-.032-.031-.064-.031l-.757-.282c-.063-.031-.126-.031-.19-.062a8.351 8.351 0 0 0-.946-.25 5.94 5.94 0 0 0-.79-.126c-.126-.031-.284-.031-.41-.062a10.27 10.27 0 0 0-.978-.063c-5.84 0-10.543 4.662-10.543 10.418 0 .282.031.595.031.845.032.094.032.188.032.313 0 .031 0 .094.031.125.032.282.064.532.127.782l.094.47c.032.156.063.281.095.406.032.157.063.282.126.407.095.376.253.72.41 1.033.095.25.253.5.38.75a.096.096 0 0 1 .031.063c.032.031.032.063.063.094a.432.432 0 0 1 .095.125c.158.25.315.5.505.72.063.062.095.156.19.25l.473.563c.063.063.126.157.19.22l.03.03c.159.188.316.313.506.47.063.062.126.156.19.187a34.56 34.56 0 0 0-1.99 3.254c-.63 1.127-1.199 2.253-1.672 3.473-.253.594-.505 1.189-.726 1.783-.221.595-.442 1.22-.632 1.815v.031c-.19.626-.379 1.22-.536 1.877-.127.501-.253 1.002-.38 1.534a61.27 61.27 0 0 0-.441 2.346c-.095.626-.158 1.22-.253 1.815-.031.125-.031.25-.031.375a13.526 13.526 0 0 0-.095 1.596C24 62.92 24 63.67 24 64.422a39.189 39.189 0 0 0 5.776 20.524c.285.438.537.876.853 1.314.379.532.726 1.064 1.105 1.596.789 1.033 1.578 2.034 2.462 3.004l1.325 1.408a47.59 47.59 0 0 0 2.242 2.096c.41.344.789.657 1.199 1a39.696 39.696 0 0 0 9.375 5.539h.032c1.199.5 2.399.97 3.661 1.345 3.946 1.126 7.955 1.752 12.058 1.752a40.04 40.04 0 0 0 11.869-1.783 39.542 39.542 0 0 0 3.661-1.346h.032a39.696 39.696 0 0 0 9.375-5.537c.41-.313.789-.657 1.2-1.002a35.87 35.87 0 0 0 2.24-2.096c.442-.438.884-.938 1.326-1.408.884-.97 1.673-1.97 2.462-3.003.38-.532.758-1.064 1.105-1.596l.852-1.314a39.189 39.189 0 0 0 5.777-20.524c.031-.72 0-1.47-.032-2.221zm-39.962 3.003c1.8 0 6.913.313 6.913 1.971 0 2.941-6.313 5.069-6.913 4.912-.6.157-6.944-1.97-6.944-4.912.032-1.627 5.145-1.97 6.944-1.97zm-23.2-17.896c3.472-2.284 11.142-3.629 14.173.313 0 0 3.788 4.005.063 8.229-3.693 4.192-6.629 8.103-7.481 11.513-.852 3.41-2.241 4.787-4.987 4.818-2.747.031-8.113-4.192-8.776-10.95-.663-6.727 3.536-11.639 7.008-13.923zm33.017 27.22c0 4.724-4.387 8.54-9.817 8.54-5.397 0-9.816-3.816-9.816-8.54H73.81zm11.648-2.347c-2.746-.031-4.135-1.408-4.987-4.818-.853-3.41-3.757-7.321-7.481-11.513-3.725-4.193.063-8.229.063-8.229 2.998-3.942 10.7-2.597 14.173-.313 3.44 2.253 7.67 7.196 7.007 13.923-.663 6.758-6.029 10.981-8.775 10.95zm4.83-45.084c4.135 0 7.449 3.285 7.449 7.384a7.314 7.314 0 0 1-2.367 5.381l-.474-.563c-.41-.5-.82-.97-1.263-1.44-.41-.469-.852-.938-1.325-1.376a56.17 56.17 0 0 0-1.39-1.314 27.653 27.653 0 0 0-1.451-1.251c-.505-.407-1.01-.783-1.515-1.19-.474-.375-.947-.719-1.452-1.032-.063-.062-.095-.094-.158-.094-.505-.344-1.01-.657-1.515-.97a7.563 7.563 0 0 0-.663-.406 7.565 7.565 0 0 1 6.124-3.129zM30.47 34.45c0-4.068 3.314-7.384 7.45-7.384 2.525 0 4.734 1.252 6.092 3.16-.221.125-.442.25-.663.407-.505.313-1.01.626-1.516.97-.063.03-.094.062-.157.094-.505.312-.979.657-1.452 1.032-.505.375-1.01.75-1.515 1.189-.506.407-.979.813-1.452 1.251-.474.407-.947.845-1.39 1.314-.441.438-.883.908-1.325 1.377-.442.47-.852.939-1.263 1.44l-.473.562c-1.42-1.376-2.336-3.285-2.336-5.412zm48.8 17.333c-1.136 0-2.083.938-2.083 2.064 0 1.127.947 2.065 2.083 2.065 1.137 0 2.083-.938 2.083-2.065 0-1.126-.946-2.064-2.083-2.064zm-29.892 4.13c1.136 0 2.083-.94 2.083-2.066s-.947-2.064-2.083-2.064c-1.137 0-2.084.938-2.084 2.064 0 1.127.947 2.065 2.084 2.065zm29.892-4.13c-1.136 0-2.083.938-2.083 2.064 0 1.127.947 2.065 2.083 2.065 1.137 0 2.083-.938 2.083-2.065 0-1.126-.946-2.064-2.083-2.064zm-29.892 0c-1.137 0-2.084.938-2.084 2.064 0 1.127.947 2.065 2.084 2.065 1.136 0 2.083-.938 2.083-2.065a2.072 2.072 0 0 0-2.083-2.064zm29.892 0c-1.136 0-2.083.938-2.083 2.064 0 1.127.947 2.065 2.083 2.065 1.137 0 2.083-.938 2.083-2.065 0-1.126-.946-2.064-2.083-2.064zm-29.892 0c-1.137 0-2.084.938-2.084 2.064 0 1.127.947 2.065 2.084 2.065 1.136 0 2.083-.938 2.083-2.065a2.072 2.072 0 0 0-2.083-2.064z"></path>
</g>
</svg>